<svg xmlns="http://www.w3.org/2000/svg" version="1.1" xmlns:xlink="http://www.w3.org/1999/xlink" xmlns:svgjs="http://svgjs.dev/svgjs" width="2000" height="1500" viewBox="0 0 2000 1500"><rect width="2000" height="1500" fill="#ffffff"></rect><g transform="matrix(0.45146726862302483,0,0,0.45146726862302483,548.8115130032611,250.40485829959522)"><svg viewBox="0 0 223 247" data-background-color="#ffffff" preserveAspectRatio="xMidYMid meet" height="2215" width="2000" xmlns="http://www.w3.org/2000/svg" xmlns:xlink="http://www.w3.org/1999/xlink"><g id="tight-bounds" transform="matrix(1,0,0,1,-0.06885139519789618,-0.09999999999999432)"><svg viewBox="0 0 223.13770279039582 247.2" height="247.2" width="223.13770279039582"><g><svg viewBox="0 0 223.13770279039582 247.2" height="247.2" width="223.13770279039582"><g><svg viewBox="0 0 223.13770279039582 247.2" height="247.2" width="223.13770279039582"><g id="textblocktransform"><svg viewBox="0 0 223.13770279039582 247.2" height="247.2" width="223.13770279039582" id="textblock"><g><svg viewBox="0 0 223.13770279039582 247.2" height="247.2" width="223.13770279039582"><g transform="matrix(1,0,0,1,0,0)"><svg width="223.13770279039582" viewBox="2.98 -35.94 33.96 37.62" height="247.2" data-palette-color="#0080ff"><path d="M17.26-15.48L16.06-1.95Q16.04-1.73 15.98-1.53 15.92-1.32 15.65-1.2L15.65-1.2Q15.55-1.15 14.69-0.84 13.82-0.54 12.68-0.13 11.55 0.27 10.44 0.67 9.33 1.07 8.74 1.29L8.74 1.29Q8.45 1.42 8.02 1.55 7.59 1.68 7.18 1.68L7.18 1.68Q6.84 1.68 6.58 1.51 6.32 1.34 6.32 0.88L6.32 0.88Q6.32-0.2 6.38-1.09 6.45-1.98 6.54-2.95 6.64-3.93 6.75-5.11 6.86-6.3 6.96-7.93L6.96-7.93Q7.08-10.08 7.23-12.07 7.37-14.06 7.52-16.21L7.52-16.21 7.86-20.39Q7.93-21.41 8.01-22.47 8.08-23.54 8.15-24.66L8.15-24.66 8.42-27.64Q8.42-27.69 8.28-27.69L8.28-27.69Q8.08-27.69 7.62-27.6 7.15-27.51 6.52-27.39 5.88-27.27 5.11-27.14 4.35-27 3.54-26.88L3.54-26.88Q3.34-26.88 3.16-26.97 2.98-27.05 2.98-27.17L2.98-27.17Q2.98-27.27 3.03-27.32L3.03-27.32 6.98-34.23Q8.33-34.52 9.88-34.83 11.43-35.13 13.21-35.38 14.99-35.62 16.99-35.78 18.99-35.94 21.24-35.94L21.24-35.94Q23.78-35.89 26.18-35.44 28.59-34.99 30.46-33.92 32.32-32.86 33.46-31.04 34.59-29.22 34.59-26.44L34.59-26.44Q34.59-24.9 34.07-23.61 33.54-22.31 32.73-21.28 31.91-20.24 30.93-19.45 29.96-18.65 29.06-18.09 28.17-17.53 27.49-17.2 26.81-16.87 26.56-16.77L26.56-16.77Q26.56-16.72 26.6-16.65 26.64-16.58 26.76-16.37 26.88-16.16 27.11-15.78 27.34-15.41 27.71-14.75L27.71-14.75Q28.1-14.16 28.64-13.18 29.17-12.21 29.92-10.88 30.66-9.55 31.64-7.91 32.62-6.27 33.89-4.39L33.89-4.39Q34.3-4.03 34.84-3.94 35.38-3.86 35.84-3.85 36.3-3.83 36.62-3.8 36.94-3.76 36.94-3.49L36.94-3.49Q36.94-3.3 36.54-3.04 36.13-2.78 35.6-2.51 35.06-2.25 34.51-2 33.96-1.76 33.67-1.61L33.67-1.61Q33.08-1.32 32.45-1.05 31.81-0.78 31.08-0.45 30.35-0.12 29.46 0.32 28.56 0.76 27.44 1.37L27.44 1.37Q27.15 1.54 26.89 1.6 26.64 1.66 26.42 1.66L26.42 1.66Q25.98 1.66 25.66 1.45 25.34 1.25 25.12 0.95 24.9 0.66 24.77 0.35 24.63 0.05 24.54-0.15L24.54-0.15 17.26-15.48ZM18.53-28.86L17.55-18.48Q18.8-18.48 20.14-19.12 21.48-19.75 22.58-20.75 23.68-21.75 24.39-23.02 25.1-24.29 25.1-25.59L25.1-25.59Q25.1-29.13 20.85-29.13L20.85-29.13Q20.04-29.13 19.51-29.02 18.97-28.91 18.53-28.86L18.53-28.86Z" opacity="1" transform="matrix(1,0,0,1,0,0)" fill="#000000" class="wordmark-text-0" data-fill-palette-color="primary" id="text-0"></path></svg></g></svg></g></svg></g></svg></g></svg></g><defs></defs></svg><rect width="223.13770279039582" height="247.2" fill="none" stroke="none" visibility="hidden"></rect></g></svg></g></svg>